<svg preserveAspectRatio="none" overflow="visible" style="display: block;" width="60" height="60" viewBox="0 0 60 60" fill="none" xmlns="http://www.w3.org/2000/svg">
<g id="SVG">
<path id="Vector" d="M52.5 20L47.5 25L43.75 15.75C43.3964 14.8033 42.7642 13.9861 41.9367 13.4059C41.1093 12.8257 40.1255 12.5099 39.115 12.5H21C19.9813 12.4766 18.9797 12.765 18.1294 13.3267C17.2792 13.8883 16.6208 14.6963 16.2425 15.6425L12.5 25L7.5 20" stroke="#D91F2A" stroke-width="2" stroke-linecap="round" stroke-linejoin="round"/>
<path id="Vector_2" d="M17.5 35H17.525" stroke="#D91F2A" stroke-width="2" stroke-linecap="round" stroke-linejoin="round"/>
<path id="Vector_3" d="M42.5 35H42.525" stroke="#D91F2A" stroke-width="2" stroke-linecap="round" stroke-linejoin="round"/>
<path id="Vector_4" d="M47.5 25H12.5C9.73858 25 7.5 27.2386 7.5 30V40C7.5 42.7614 9.73858 45 12.5 45H47.5C50.2614 45 52.5 42.7614 52.5 40V30C52.5 27.2386 50.2614 25 47.5 25Z" stroke="#D91F2A" stroke-width="2" stroke-linecap="round" stroke-linejoin="round"/>
<path id="Vector_5" d="M12.5 45V50" stroke="#D91F2A" stroke-width="2" stroke-linecap="round" stroke-linejoin="round"/>
<path id="Vector_6" d="M47.5 45V50" stroke="#D91F2A" stroke-width="2" stroke-linecap="round" stroke-linejoin="round"/>
</g>
</svg>
