<svg preserveAspectRatio="none" overflow="visible" style="display: block;" width="15" height="24" viewBox="0 0 15 24" fill="none" xmlns="http://www.w3.org/2000/svg">
<g id="SVG">
<path id="Vector" d="M7.87562 18.1244C9.03813 17.1206 12.5 13.8706 12.5 10.75C12.5 9.42392 11.9732 8.15215 11.0355 7.21447C10.0979 6.27678 8.82608 5.75 7.5 5.75C6.17392 5.75 4.90215 6.27678 3.96447 7.21447C3.02678 8.15215 2.5 9.42392 2.5 10.75C2.5 13.8706 5.96188 17.1206 7.12438 18.1244C7.23267 18.2058 7.3645 18.2498 7.5 18.2498C7.6355 18.2498 7.76733 18.2058 7.87562 18.1244Z" stroke="white" stroke-width="1.25" stroke-linecap="round" stroke-linejoin="round"/>
<path id="Vector_2" d="M7.5 12.625C8.53553 12.625 9.375 11.7855 9.375 10.75C9.375 9.71447 8.53553 8.875 7.5 8.875C6.46447 8.875 5.625 9.71447 5.625 10.75C5.625 11.7855 6.46447 12.625 7.5 12.625Z" stroke="white" stroke-width="1.25" stroke-linecap="round" stroke-linejoin="round"/>
</g>
</svg>
